<?xml version="1.0" encoding="UTF-8"?>
<svg id="Layer_1" xmlns="http://www.w3.org/2000/svg" version="1.1" viewBox="0 0 72 72">
  <!-- Generator: Adobe Illustrator 29.7.1, SVG Export Plug-In . SVG Version: 2.1.1 Build 8)  -->
  <defs>
    <style>
      .st0 {
        fill: #22234d;
      }

      .st1 {
        fill: #bacfe2;
        fill-rule: evenodd;
      }
    </style>
  </defs>
  <path class="st1" d="M28.6,57.4c.6,1.1,1.2,2.1,1.7,3-6-1.4-11.2-4.8-14.8-9.6,2.4-1.3,5.4-2.7,9.1-3.8,1,4.1,2.5,7.5,4,10.3ZM33.1,55c-1.3-2.4-2.6-5.4-3.5-9,2-.3,4.1-.5,6.4-.5s4.4.2,6.4.5c-.9,3.6-2.2,6.6-3.5,9-1,1.9-2.1,3.5-2.9,4.6-.8-1.1-1.9-2.7-2.9-4.6ZM28.3,35.3c0,2,.1,3.9.4,5.7,2.3-.4,4.8-.6,7.4-.6s5.1.2,7.4.6c.2-1.8.4-3.7.4-5.7s-.1-3.9-.4-5.7c-2.3.4-4.8.6-7.4.6s-5.1-.2-7.4-.6c-.2,1.8-.4,3.7-.4,5.7ZM23.6,28.5c-.3,2.1-.5,4.4-.5,6.8s.2,4.6.5,6.8c-4.4,1.2-8,2.8-10.8,4.4-1.6-3.4-2.6-7.2-2.6-11.2s.9-7.8,2.6-11.2c2.8,1.6,6.4,3.3,10.8,4.4ZM29.6,24.5c2,.3,4.1.5,6.4.5s4.4-.2,6.4-.5c-.9-3.6-2.2-6.6-3.5-9-1-1.9-2.1-3.5-2.9-4.6-.8,1.1-1.9,2.7-2.9,4.6-1.3,2.4-2.6,5.4-3.5,9ZM48.4,28.5c.3,2.1.5,4.4.5,6.8s-.2,4.6-.5,6.8c4.4,1.2,8,2.8,10.8,4.4,1.6-3.4,2.6-7.2,2.6-11.2s-.9-7.8-2.6-11.2c-2.8,1.6-6.4,3.3-10.8,4.4ZM56.5,19.7c-2.4,1.3-5.4,2.7-9.1,3.8-1-4.1-2.5-7.5-4-10.3-.6-1.1-1.2-2.1-1.7-3,6,1.4,11.2,4.8,14.8,9.6ZM24.6,23.4c-3.7-1-6.7-2.4-9.1-3.8,3.6-4.7,8.8-8.2,14.8-9.6-.6.9-1.2,1.9-1.7,3-1.5,2.8-2.9,6.2-4,10.3ZM47.4,47.1c-1,4.1-2.5,7.5-4,10.3-.6,1.1-1.2,2.1-1.7,3,6-1.4,11.2-4.8,14.8-9.6-2.4-1.3-5.4-2.7-9.1-3.8ZM36,66.2c17.1,0,30.9-13.8,30.9-30.9S53.1,4.4,36,4.4,5.1,18.2,5.1,35.3s13.8,30.9,30.9,30.9Z"/>
  <path class="st0" d="M65.3,29.8c-1.2-2.1-2.9-3.7-5.1-4.9s-4.7-1.8-7.7-1.8h-7.7,0s-8.4,0-8.4,0l-3.2,18.8-4.3-18.8h-8.5l-4.4,19-3.2-19H4.6l6.7,27.8h9.5l3.9-17,3.8,17h9.5l3.5-14.2v14.2h11c2.9,0,5.4-.6,7.6-1.8s3.9-2.8,5.1-4.9c1.2-2.1,1.8-4.5,1.8-7.2s-.6-5.1-1.8-7.2ZM57.3,42.3c-1.3,1.2-3.1,1.9-5.3,1.9h-2.7v-14.3h2.7c2.3,0,4,.6,5.3,1.9,1.3,1.2,1.9,3,1.9,5.3s-.6,4-1.9,5.2Z"/>
</svg>